{
  "accessors": [
    {
      "bufferView": 0,
      "componentType": 5126,
      "count": 61231,
      "max": [
        0.0489670000970364,
        0.0295640006661415,
        0.0509390011429787
      ],
      "min": [
        -0.0489029996097088,
        -0.0295899994671345,
        -0.0508529990911484
      ],
      "type": "VEC3"
    },
    {
      "bufferView": 1,
      "componentType": 5126,
      "count": 61231,
      "type": "VEC3"
    },
    {
      "bufferView": 2,
      "componentType": 5126,
      "count": 61231,
      "type": "VEC2"
    },
    {
      "bufferView": 3,
      "componentType": 5123,
      "count": 300000,
      "type": "SCALAR"
    }
  ],
  "asset": {
    "generator": "MeshSmith mesh conversion tool",
    "version": "2.0"
  },
  "bufferViews": [
    {
      "buffer": 0,
      "byteLength": 734772,
      "target": 34962
    },
    {
      "buffer": 0,
      "byteLength": 734772,
      "byteOffset": 734772,
      "target": 34962
    },
    {
      "buffer": 0,
      "byteLength": 489848,
      "byteOffset": 1469544,
      "target": 34962
    },
    {
      "buffer": 0,
      "byteLength": 600000,
      "byteOffset": 1959392,
      "target": 34963
    }
  ],
  "buffers": [
    {
      "byteLength": 2559392,
      "uri": "usnm_73-100k-2048.bin"
    }
  ],
  "images": [
    {
      "uri": "usnm_73-100k-2048-diffuse.jpg"
    },
    {
      "uri": "usnm_73-100k-2048-occlusion.jpg"
    },
    {
      "uri": "usnm_73-100k-2048-normals.jpg"
    }
  ],
  "materials": [
    {
      "name": "default",
      "normalTexture": {
        "index": 2
      },
      "occlusionTexture": {
        "index": 1
      },
      "pbrMetallicRoughness": {
        "baseColorTexture": {
          "index": 0
        },
        "metallicFactor": 0.100000001490116,
        "roughnessFactor": 0.800000011920929
      }
    }
  ],
  "meshes": [
    {
      "primitives": [
        {
          "attributes": {
            "NORMAL": 1,
            "POSITION": 0,
            "TEXCOORD_0": 2
          },
          "indices": 3,
          "material": 0,
          "mode": 4
        }
      ]
    }
  ],
  "nodes": [
    {
      "mesh": 0
    }
  ],
  "scene": 0,
  "scenes": [
    {
      "nodes": [
        0
      ]
    }
  ],
  "textures": [
    {
      "source": 0
    },
    {
      "source": 1
    },
    {
      "source": 2
    }
  ]
}